<mxfile host="app.diagrams.net" modified="2023-12-09T23:16:56.289Z" agent="Mozilla/5.0 (Macintosh; Intel Mac OS X 10_15_7) AppleWebKit/537.36 (KHTML, like Gecko) Chrome/119.0.0.0 Safari/537.36" etag="flZ-MS1W75n6RtgbDr3G" version="22.1.7" type="device">
  <diagram name="PÃ¡gina-1" id="fji9JL-fsGwnYNeOaUpJ">
    <mxGraphModel dx="347" dy="224" grid="1" gridSize="10" guides="1" tooltips="1" connect="1" arrows="1" fold="1" page="1" pageScale="1" pageWidth="827" pageHeight="1169" math="1" shadow="0">
      <root>
        <mxCell id="0" />
        <mxCell id="1" parent="0" />
        <mxCell id="mQKUvRmvB-QY3dMviAYL-4" value="" style="ellipse;whiteSpace=wrap;html=1;aspect=fixed;dashed=1;dashPattern=1 2;" vertex="1" parent="1">
          <mxGeometry x="80" y="120" width="158" height="158" as="geometry" />
        </mxCell>
        <mxCell id="mQKUvRmvB-QY3dMviAYL-1" value="" style="endArrow=classic;html=1;rounded=0;" edge="1" parent="1">
          <mxGeometry width="50" height="50" relative="1" as="geometry">
            <mxPoint x="160" y="200" as="sourcePoint" />
            <mxPoint x="160" y="90" as="targetPoint" />
          </mxGeometry>
        </mxCell>
        <mxCell id="mQKUvRmvB-QY3dMviAYL-2" value="" style="endArrow=classic;html=1;rounded=0;" edge="1" parent="1">
          <mxGeometry width="50" height="50" relative="1" as="geometry">
            <mxPoint x="160" y="200" as="sourcePoint" />
            <mxPoint x="270" y="200" as="targetPoint" />
          </mxGeometry>
        </mxCell>
        <mxCell id="mQKUvRmvB-QY3dMviAYL-6" value="" style="endArrow=classic;html=1;rounded=0;" edge="1" parent="1">
          <mxGeometry width="50" height="50" relative="1" as="geometry">
            <mxPoint x="160" y="200" as="sourcePoint" />
            <mxPoint x="84" y="185" as="targetPoint" />
          </mxGeometry>
        </mxCell>
        <mxCell id="mQKUvRmvB-QY3dMviAYL-11" value="$$v_{in}$$" style="text;html=1;strokeColor=none;fillColor=none;align=center;verticalAlign=middle;whiteSpace=wrap;rounded=0;" vertex="1" parent="1">
          <mxGeometry x="68" y="160" width="60" height="30" as="geometry" />
        </mxCell>
        <mxCell id="mQKUvRmvB-QY3dMviAYL-12" value="$$v_o$$" style="text;html=1;strokeColor=none;fillColor=none;align=center;verticalAlign=middle;whiteSpace=wrap;rounded=0;" vertex="1" parent="1">
          <mxGeometry x="200" y="173" width="60" height="30" as="geometry" />
        </mxCell>
        <mxCell id="mQKUvRmvB-QY3dMviAYL-14" value="$$x_{in} &amp;lt; 0 $$&amp;nbsp;" style="text;html=1;strokeColor=none;fillColor=none;align=center;verticalAlign=middle;whiteSpace=wrap;rounded=0;" vertex="1" parent="1">
          <mxGeometry x="24" y="178" width="60" height="30" as="geometry" />
        </mxCell>
        <mxCell id="mQKUvRmvB-QY3dMviAYL-16" value="" style="endArrow=classic;html=1;rounded=0;dashed=1;" edge="1" parent="1">
          <mxGeometry width="50" height="50" relative="1" as="geometry">
            <mxPoint x="159" y="200" as="sourcePoint" />
            <mxPoint x="235" y="215" as="targetPoint" />
          </mxGeometry>
        </mxCell>
        <mxCell id="mQKUvRmvB-QY3dMviAYL-30" value="$$v_{in}^*$$" style="text;html=1;strokeColor=none;fillColor=none;align=center;verticalAlign=middle;whiteSpace=wrap;rounded=0;" vertex="1" parent="1">
          <mxGeometry x="193" y="210" width="60" height="30" as="geometry" />
        </mxCell>
        <mxCell id="mQKUvRmvB-QY3dMviAYL-32" value="" style="curved=1;endArrow=none;html=1;rounded=0;endFill=0;" edge="1" parent="1">
          <mxGeometry width="50" height="50" relative="1" as="geometry">
            <mxPoint x="138" y="195" as="sourcePoint" />
            <mxPoint x="191" y="199" as="targetPoint" />
            <Array as="points">
              <mxPoint x="141" y="187" />
              <mxPoint x="185" y="189" />
            </Array>
          </mxGeometry>
        </mxCell>
        <mxCell id="mQKUvRmvB-QY3dMviAYL-34" value="" style="endArrow=classic;html=1;rounded=0;" edge="1" parent="1">
          <mxGeometry width="50" height="50" relative="1" as="geometry">
            <mxPoint x="165" y="200" as="sourcePoint" />
            <mxPoint x="238" y="200" as="targetPoint" />
          </mxGeometry>
        </mxCell>
        <mxCell id="mQKUvRmvB-QY3dMviAYL-35" value="$$z_n &amp;gt; 90$$" style="text;html=1;strokeColor=none;fillColor=none;align=center;verticalAlign=middle;whiteSpace=wrap;rounded=0;" vertex="1" parent="1">
          <mxGeometry x="156" y="164" width="60" height="30" as="geometry" />
        </mxCell>
      </root>
    </mxGraphModel>
  </diagram>
</mxfile>
